#!OML:ASF F:\VICON\USERDATA\INSTALL\rory3\rory3.ASF
:FULLY-SPECIFIED
:DEGREES
16
root 1.61321 17.186 -31.6874 1.14486 10.177 3.92185
lowerback 21.9737 -1.50444 -6.9512
upperback 1.75808 -3.60094 0.463374
thorax -9.8958 -1.38161 5.55464
lowerneck -10.0728 6.18228 1.09185
upperneck 32.3033 10.0294 -3.72195
head 12.6513 4.13457 -0.235556
rclavicle -5.1684e-014 7.95139e-015
rhumerus -40.4834 -18.5854 -65.5292
rradius 43.8982
rwrist -4.64406
rhand -12.1143 6.07148
rfingers 7.12502
rthumb 13.9469 -23.4407
lclavicle -5.1684e-014 7.95139e-015
lhumerus -25.2866 22.2699 76.9349
lradius 37.2283
lwrist 20.9027
lhand -11.888 65.7406
lfingers 7.12502
lthumb 14.165 -95.2376
rfemur -35.243 -1.30764 12.4331
rtibia 27.126
rfoot -10.2375 -20.8625
rtoes 14.6196
lfemur 13.3302 -4.59994 -26.9105
ltibia 12.2325
lfoot -17.1534 -0.173241
ltoes -16.4304
17
root 1.57348 17.2 -31.5418 1.24188 10.5648 3.63922
lowerback 21.4912 -1.57155 -7.0897
upperback 1.55587 -3.67616 0.657071
thorax -9.8269 -1.4068 5.849
lowerneck -7.9479 6.02253 1.56845
upperneck 31.4953 9.72667 -4.11022
head 11.9176 4.08442 -0.58985
rclavicle -3.3048e-014 4.07509e-015
rhumerus -41.5539 -18.5548 -65.0342
rradius 43.8315
rwrist -4.56868
rhand -12.1212 7.00827
rfingers 7.12502
rthumb 13.9402 -22.5044
lclavicle -3.3048e-014 4.07509e-015
lhumerus -26.6224 23.1472 76.7255
lradius 37.9774
lwrist 25.5219
lhand -12.7358 66.702
lfingers 7.12502
lthumb 13.3479 -96.2545
rfemur -35.175 -1.13782 12.9496
rtibia 27.4901
rfoot -10.4813 -21.2982
rtoes 15.2142
lfemur 13.4278 -4.94678 -26.3165
ltibia 12.6401
lfoot -16.9457 -0.284378
ltoes -18.0599
18
root 1.55557 17.1994 -31.3913 1.40304 10.5933 3.97928
lowerback 21.049 -1.49936 -7.48241
upperback 2.15776 -3.60652 0.669789
thorax -8.89526 -1.42457 6.0146
lowerneck -9.20454 5.958 1.38291
upperneck 31.356 9.66464 -4.10264
head 12.1071 4.00864 -0.518305
rclavicle 3.44146e-014 -1.2921e-015
rhumerus -40.6303 -19.1805 -65.1979
rradius 43.6721
rwrist -4.7277
rhand -12.3069 6.89103
rfingers 7.12502
rthumb 13.7612 -22.6339
lclavicle 3.44146e-014 -1.2921e-015
lhumerus -26.0893 24.467 77.2357
lradius 38.6361
lwrist 30.4115
lhand -13.6046 67.4751
lfingers 7.12502
lthumb 12.5104 -97.0806
rfemur -35.206 -1.61681 12.9985
rtibia 27.996
rfoot -10.1073 -20.7384
rtoes 15.2293
lfemur 13.6918 -5.12082 -26.5757
ltibia 12.9428
lfoot -16.6492 -0.361999
ltoes -18.8114
19
root 1.53651 17.199 -31.2566 1.74611 10.2196 3.9834
lowerback 21.4728 -1.46782 -7.26698
upperback 1.65841 -3.59339 0.48793
thorax -9.7145 -1.37235 5.7334
lowerneck -8.58845 5.95156 1.6509
upperneck 31.3591 9.56492 -4.01401
head 11.9858 4.0196 -0.566623
rclavicle 1.73812e-014 -4.62174e-015
rhumerus -41.5306 -19.0235 -65.1492
rradius 43.5142
rwrist -4.89785
rhand -12.4563 7.33717
rfingers 7.12502
rthumb 13.6173 -22.1974
lclavicle 1.73812e-014 -4.62174e-015
lhumerus -27.6232 25.0633 76.529
lradius 39.6634
lwrist 35.5447
lhand -14.2635 68.5145
lfingers 7.12502
lthumb 11.875 -98.1577
rfemur -35.6807 -1.62128 13.3728
rtibia 28.5803
rfoot -9.29659 -20.1057
rtoes 14.5333
lfemur 13.8885 -5.35745 -26.5759
ltibia 12.6773
lfoot -16.0473 -0.341195
ltoes -17.7058
20
root 1.50145 17.2047 -31.1139 1.76728 10.1512 3.83397
lowerback 22.4011 -1.47962 -7.07301
upperback 1.0707 -3.67234 0.421395
thorax -10.8958 -1.33929 5.65267
lowerneck -7.72292 5.92956 1.75216
upperneck 31.3484 9.46117 -3.86439
head 11.7956 4.02319 -0.57418
rclavicle -5.00068e-015 5.81445e-015
rhumerus -42.7351 -18.802 -64.8789
rradius 43.1206
rwrist -5.02072
rhand -12.1556 8.02054
rfingers 7.12502
rthumb 13.9071 -21.4944
lclavicle -5.00068e-015 5.81445e-015
lhumerus -29.5324 25.387 75.7109
lradius 40.6454
lwrist 40.4077
lhand -13.844 68.7826
lfingers 7.12502
lthumb 12.2796 -98.402
rfemur -35.6682 -1.38181 13.7725
rtibia 29.2212
rfoot -8.6653 -19.5874
rtoes 15.2541
lfemur 14.3723 -5.58144 -26.2435
ltibia 12.507
lfoot -15.3582 -0.60465
ltoes -16.1496
21
root 1.4709 17.2407 -30.9394 1.95927 10.6092 3.66678
lowerback 21.4777 -1.58332 -6.8358
upperback 2.15154 -3.6173 0.470968
thorax -9.18819 -1.44043 5.45515
lowerneck -10.3756 5.85812 1.60508
upperneck 31.3291 9.36648 -3.77259
head 12.3183 3.91224 -0.431401
rclavicle 2.93332e-014 1.16786e-015
rhumerus -41.1494 -20.1121 -65.4542
rradius 42.9079
rwrist -5.54271
rhand -11.6691 7.29982
rfingers 7.12502
rthumb 14.3759 -22.1824
lclavicle 2.93332e-014 1.16786e-015
lhumerus -27.8003 26.2533 76.6448
lradius 41.4059
lwrist 45.0413
lhand -14.0745 69.7539
lfingers 7.12502
lthumb 12.0572 -99.3866
rfemur -35.5044 -1.23169 14.0429
rtibia 29.814
rfoot -7.96411 -19.4342
rtoes 17.292
lfemur 14.6451 -6.0025 -25.7568
ltibia 12.521
lfoot -14.6986 -1.00698
ltoes -18.1401
22
root 1.4496 17.2582 -30.7966 2.04151 10.296 3.48052
lowerback 21.0827 -1.531 -6.81175
upperback 2.09196 -3.50463 0.609491
thorax -9.04782 -1.39231 5.543
lowerneck -8.83399 5.81911 1.58788
upperneck 30.5474 9.32663 -4.04533
head 11.6991 3.91619 -0.596045
rclavicle -5.35476e-015 -1.54058e-015
rhumerus -41.6277 -19.9939 -65.059
rradius 42.758
rwrist -5.2432
rhand -10.5458 6.82315
rfingers 7.12502
rthumb 15.458 -22.5788
lclavicle -5.35476e-015 -1.54058e-015
lhumerus -29.042 26.8454 76.5442
lradius 42.6152
lwrist 49.4407
lhand -13.7002 69.8521
lfingers 7.12502
lthumb 12.4181 -99.4632
rfemur -35.672 -0.909707 14.4086
rtibia 30.4199
rfoot -6.72113 -18.9597
rtoes 18.7889
lfemur 14.869 -6.17852 -25.5516
ltibia 12.6902
lfoot -13.921 -0.726988
ltoes -21.22
